<?xml version="1.0" encoding="utf-8"?><!-- Uploaded to: SVG Repo, www.svgrepo.com, Generator: SVG Repo Mixer Tools -->
<svg width="800px" height="800px" viewBox="0 0 24 24" fill="none" xmlns="http://www.w3.org/2000/svg">
<path d="M8.025 8C8.025 8.41421 8.36079 8.75 8.775 8.75C9.18922 8.75 9.525 8.41421 9.525 8H8.025ZM13.875 8C13.875 8.41421 14.2108 8.75 14.625 8.75C15.0392 8.75 15.375 8.41421 15.375 8H13.875ZM8.80427 8.74943C9.21817 8.73326 9.5406 8.38463 9.52443 7.97073C9.50826 7.55683 9.15963 7.23441 8.74573 7.25057L8.80427 8.74943ZM4.16474 11.3809C4.09897 11.7899 4.37718 12.1747 4.78613 12.2405C5.19509 12.3063 5.57994 12.0281 5.64571 11.6191L4.16474 11.3809ZM8.775 7.25C8.36079 7.25 8.025 7.58579 8.025 8C8.025 8.41421 8.36079 8.75 8.775 8.75V7.25ZM14.625 8.75C15.0392 8.75 15.375 8.41421 15.375 8C15.375 7.58579 15.0392 7.25 14.625 7.25V8.75ZM9.66 13.6046C10.0712 13.6543 10.4449 13.3612 10.4946 12.95C10.5443 12.5388 10.2512 12.1651 9.84 12.1154L9.66 13.6046ZM5.21442 10.8207C4.83705 10.6499 4.39269 10.8174 4.22193 11.1948C4.05116 11.5722 4.21866 12.0165 4.59603 12.1873L5.21442 10.8207ZM10.5 12.86C10.5 12.4458 10.1642 12.11 9.75 12.11C9.33579 12.11 9 12.4458 9 12.86H10.5ZM9 14.99C9 15.4042 9.33579 15.74 9.75 15.74C10.1642 15.74 10.5 15.4042 10.5 14.99H9ZM9.84273 12.1158C9.4317 12.0645 9.05697 12.3562 9.00576 12.7673C8.95454 13.1783 9.24623 13.553 9.65727 13.6042L9.84273 12.1158ZM11.7 12.99L11.6931 13.7401L11.7065 13.74L11.7 12.99ZM13.7424 13.6053C14.1534 13.5543 14.4453 13.1797 14.3943 12.7687C14.3433 12.3576 13.9687 12.0657 13.5577 12.1167L13.7424 13.6053ZM4.59141 12.1852C4.96762 12.3585 5.4131 12.194 5.58642 11.8178C5.75973 11.4416 5.59525 10.9961 5.21904 10.8228L4.59141 12.1852ZM4.27005 10.3376C3.90976 10.1333 3.45202 10.2597 3.24765 10.62C3.04328 10.9802 3.16967 11.438 3.52996 11.6424L4.27005 10.3376ZM5.64934 11.5978C5.70114 11.1868 5.40999 10.8117 4.99902 10.7599C4.58806 10.7081 4.21292 10.9992 4.16112 11.4102L5.64934 11.5978ZM4.875 11.99L5.625 11.99L5.625 11.9891L4.875 11.99ZM4.875 15.99H4.125C4.125 15.9993 4.12518 16.0087 4.12552 16.018L4.875 15.99ZM9.0753 19.99V19.24C9.06612 19.24 9.05693 19.2402 9.04775 19.2405L9.0753 19.99ZM14.3257 19.99L14.353 19.2405C14.3439 19.2402 14.3348 19.24 14.3257 19.24L14.3257 19.99ZM18.525 15.99L19.2745 16.018C19.2748 16.0087 19.275 15.9993 19.275 15.99L18.525 15.99ZM18.525 11.99L17.775 11.9891V11.99H18.525ZM19.2389 11.4102C19.1871 10.9992 18.8119 10.7081 18.401 10.7599C17.99 10.8117 17.6989 11.1868 17.7507 11.5978L19.2389 11.4102ZM14.6543 7.25057C14.2404 7.23441 13.8917 7.55683 13.8756 7.97073C13.8594 8.38463 14.1818 8.73326 14.5957 8.74943L14.6543 7.25057ZM17.7543 11.6191C17.8201 12.0281 18.2049 12.3063 18.6139 12.2405C19.0228 12.1747 19.301 11.7899 19.2353 11.3809L17.7543 11.6191ZM13.56 12.1154C13.1488 12.1651 12.8557 12.5388 12.9054 12.95C12.9551 13.3612 13.3288 13.6543 13.74 13.6046L13.56 12.1154ZM18.804 12.1873C19.1813 12.0165 19.3488 11.5722 19.1781 11.1948C19.0073 10.8174 18.563 10.6499 18.1856 10.8207L18.804 12.1873ZM14.4 12.86C14.4 12.4458 14.0642 12.11 13.65 12.11C13.2358 12.11 12.9 12.4458 12.9 12.86H14.4ZM12.9 14.99C12.9 15.4042 13.2358 15.74 13.65 15.74C14.0642 15.74 14.4 15.4042 14.4 14.99H12.9ZM18.181 10.8228C17.8048 10.9961 17.6403 11.4416 17.8136 11.8178C17.9869 12.194 18.4324 12.3585 18.8086 12.1852L18.181 10.8228ZM19.87 11.6424C20.2303 11.438 20.3567 10.9802 20.1524 10.62C19.948 10.2597 19.4902 10.1333 19.13 10.3376L19.87 11.6424ZM9.525 8C9.525 6.73935 10.5166 5.75 11.7 5.75V4.25C9.65257 4.25 8.025 5.94695 8.025 8H9.525ZM11.7 5.75C12.8834 5.75 13.875 6.73935 13.875 8H15.375C15.375 5.94695 13.7474 4.25 11.7 4.25V5.75ZM8.74573 7.25057C6.43906 7.34066 4.53484 9.07978 4.16474 11.3809L5.64571 11.6191C5.90653 9.99741 7.23733 8.81063 8.80427 8.74943L8.74573 7.25057ZM8.775 8.75H14.625V7.25H8.775V8.75ZM9.84 12.1154C8.24431 11.9225 6.68526 11.4863 5.21442 10.8207L4.59603 12.1873C6.20537 12.9155 7.9122 13.3933 9.66 13.6046L9.84 12.1154ZM9 12.86V14.99H10.5V12.86H9ZM9.65727 13.6042C10.3329 13.6884 11.0126 13.7337 11.6931 13.74L11.7069 12.24C11.0837 12.2343 10.4614 12.1928 9.84273 12.1158L9.65727 13.6042ZM11.7065 13.74C12.387 13.7341 13.0667 13.6891 13.7424 13.6053L13.5577 12.1167C12.939 12.1935 12.3166 12.2346 11.6935 12.24L11.7065 13.74ZM5.21904 10.8228C4.88545 10.6691 4.56921 10.5073 4.27005 10.3376L3.52996 11.6424C3.8678 11.834 4.22171 12.0149 4.59141 12.1852L5.21904 10.8228ZM4.16112 11.4102C4.13684 11.6028 4.12478 11.7967 4.125 11.9909L5.625 11.9891C5.62485 11.8583 5.63298 11.7275 5.64934 11.5978L4.16112 11.4102ZM4.125 11.99V15.99H5.625V11.99H4.125ZM4.12552 16.018C4.22595 18.7067 6.43559 20.8375 9.10285 20.7395L9.04775 19.2405C7.24343 19.3068 5.69534 17.8591 5.62448 15.962L4.12552 16.018ZM9.0753 20.74H14.3257V19.24H9.0753V20.74ZM14.2983 20.7395C16.9651 20.8369 19.174 18.7063 19.2745 16.018L17.7755 15.962C17.7047 17.8588 16.1571 19.3064 14.353 19.2405L14.2983 20.7395ZM19.275 15.99V11.99H17.775V15.99H19.275ZM19.275 11.9909C19.2752 11.7967 19.2632 11.6028 19.2389 11.4102L17.7507 11.5978C17.767 11.7276 17.7752 11.8583 17.775 11.9891L19.275 11.9909ZM14.5957 8.74943C16.1627 8.81063 17.4935 9.99741 17.7543 11.6191L19.2353 11.3809C18.8652 9.07978 16.9609 7.34066 14.6543 7.25057L14.5957 8.74943ZM13.74 13.6046C15.4878 13.3933 17.1946 12.9155 18.804 12.1873L18.1856 10.8207C16.7147 11.4863 15.1557 11.9225 13.56 12.1154L13.74 13.6046ZM12.9 12.86V14.99H14.4V12.86H12.9ZM18.8086 12.1852C19.1783 12.0149 19.5322 11.834 19.87 11.6424L19.13 10.3376C18.8308 10.5073 18.5146 10.6691 18.181 10.8228L18.8086 12.1852Z" fill="#000000"/>
</svg>