<svg xmlns="http://www.w3.org/2000/svg" version="1.1" id="Layer_1" x="0" y="0" viewBox="0 0 140 21"
    style="enable-background:new 0 0 140 21" xml:space="preserve"><style>.st0{fill:#00d264}.st1{fill:#fff}</style><g id="Page-1"><g id="EmbedIT_short" transform="translate(-20 -80)"><g id="EmbedIT_logo_short" transform="translate(20 80)"><g id="Group"><path id="Path" class="st0" d="M13.6 8.8 2.9 13.6l10.7 4.7v2.2l-13.5-6v-1.9l13.5-6z"/><g transform="translate(15)"><path id="Shape" class="st1" d="M10.8 12.4c0-2-1.6-3.5-3.8-3.5-3 0-4.3 2.1-4.4 3.5h8.2zm-8.5 1.7c-.1 2.2 1.3 4.1 4.1 4.1 2.1 0 3.3-.9 4.1-2l1.5 1C11 18.4 9.4 20 6.3 20 2.4 20 .1 17.6.1 14.3c0-4.3 2.9-7.1 7-7.1 3.6 0 6 2.2 6 5.6v1.4l-10.8-.1z"/><path id="Path_00000170263234075565085810000004955168593685264831_" class="st1" d="m16.4 18 1.5-8.9h-2.2l.3-1.7h4.2L20 8.8c1.1-1 2.6-1.7 4.3-1.7 1.5 0 2.5.8 3 1.9 1-.9 2.7-1.9 4.7-1.9 2.1 0 3.2 1.3 3.2 2.9 0 .6-.1 1.3-.3 2l-1 6h2l-.3 1.7h-5.9L30 18h1.8l1-5.8c.1-.6.2-1.2.2-1.8 0-1.1-.7-1.5-1.6-1.5-1.6 0-3.2 1.2-4 1.8L26.2 18h1.9l-.3 1.7H22l.3-1.7h1.8l1-5.8c.1-.6.2-1.2.2-1.8 0-1.1-.7-1.5-1.6-1.5-1.6 0-3.2 1.2-4 1.8L18.5 18h2l-.3 1.7h-6l.3-1.7h1.9z"/><path id="Shape_00000183226521929959248160000015225997698443137682_" class="st1" d="M46.8 8.9c-2.9 0-4.4 2.9-4.4 5.4 0 2.5 1.3 3.9 3.8 3.9 3.1 0 4.1-2.8 4.1-5.2 0-2.5-1.3-4.1-3.5-4.1zm-4.4-6.7h-2.2l.3-1.7h4.3l-1.4 8.2v.1c1.2-1.1 2.2-1.6 3.9-1.6 3.5 0 5.2 2.7 5.2 5.7 0 3.7-2.3 7.1-6.5 7.1-2 0-3.6-.8-4.5-2.6l-.4 2.3h-3.4L38 18h1.7l2.7-15.8z"/><path id="Shape_00000018932054703483465960000008376355920169776567_" class="st1" d="M65.3 12.4c0-2-1.6-3.5-3.8-3.5-3.1 0-4.3 2.1-4.5 3.5h8.3zm-8.5 1.7c-.1 2.2 1.3 4.1 4.1 4.1 2.1 0 3.3-.9 4.1-2l1.5 1c-1 1.2-2.6 2.7-5.7 2.7-3.9 0-6.2-2.4-6.2-5.7 0-4.3 2.9-7.1 7-7.1 3.6 0 6 2.2 6 5.6v1.4H56.8z"/><path id="Shape_00000161603546773054929070000010860555119097586569_" class="st1" d="M75.3 18.2c3 0 4.5-2.5 4.5-5.1 0-2.3-1.5-4.2-3.8-4.2-3 0-4.5 2.5-4.5 5.1 0 2.5 1.6 4.2 3.8 4.2zm3.8.1c-1.1 1-2.5 1.7-4 1.7-3.5 0-5.8-2.4-5.8-5.8 0-3.7 2.3-7.1 6.6-7.1 2.8 0 4.3 1.8 4.5 2.3l1.3-7.3h-2.3l.3-1.7h4.5L81 18h2l-.3 1.7h-3.8l.2-1.4z"/><path id="Path_00000014605236990641227660000002266127503861983369_" class="st0" d="M91 .5h1.7l-5.8 19.6h-1.7z"/><path id="Shape_00000176729946611314738440000013018883205213140611_" class="st1" d="M99.1 4.3H96l.4-2.3h3l-.3 2.3zm-5 4.8.3-1.7h4.3L96.9 18H99l-.3 1.7h-6L93 18h1.8l1.4-8.9h-2.1z"/><path id="Path_00000096740353780237350130000008483661444985776819_" class="st1" d="M107 7.4h2.2l-.3 1.7h-2.2l-1.2 6.7c-.1.5-.2 1.1-.2 1.4 0 .5.2.8.9.8h1.6l-.3 1.8h-2.6c-1.1 0-1.8-.5-1.8-1.6 0-.5.1-1.3.2-2l1.3-7.1h-2.2l.3-1.7h2.2l.8-4.3h2.1l-.8 4.3z"/><path id="Path_00000100376439670526420270000016038340137877441939_" class="st0" d="M124.9 12.6v1.9l-13.5 6v-2.2l10.7-4.7-10.7-4.8V6.6z"/></g></g></g></g></g></svg>